# xmcd
#
# Track frame offsets: 
#        150
#        25280
#        31628
#        61822
#        89103
#        122367
#        141818
#        168292
#        199154
#        215664
#        221700
#        245609
#
# Disc length: 3419 seconds
#
# Revision: 4
# Processed by: cddbd v1.5.2PL0 Copyright (c) Steve Scherf et al.
# Submitted via: ExactAudioCopy v0.99pb5
#
DISCID=ac0d590c
DTITLE=Louis Sclavis - Lost on the way
DYEAR=2009
DGENRE=Jazz
TTITLE0=De charybde en scylla
TTITLE1=La première île
TTITLE2=Lost on the way
TTITLE3=Bain d'or
TTITLE4=Le sommeil de sirènes
TTITLE5=L'heure des songes
TTITLE6=Aboard Ulysses's boat
TTITLE7=Les doutes du cyclope
TTITLE8=Un vent noir
TTITLE9=The last island
TTITLE10=Des bruits à tisser
TTITLE11=L'absence
EXTD=YEAR: 2009
EXTT0=
EXTT1=
EXTT2=
EXTT3=
EXTT4=
EXTT5=
EXTT6=
EXTT7=
EXTT8=
EXTT9=
EXTT10=
EXTT11=
PLAYORDER=
